<svg id="svg" xmlns="http://www.w3.org/2000/svg" xmlns:xlink="http://www.w3.org/1999/xlink" width="400" height="400" viewBox="0, 0, 400,400"><g id="svgg"><path id="path0" d="M199.600 18.265 C 199.270 18.405,198.491 18.942,197.869 19.460 C 197.247 19.977,196.403 20.400,195.992 20.400 C 195.581 20.400,194.994 20.759,194.687 21.197 C 194.380 21.636,193.572 22.106,192.892 22.242 C 192.212 22.378,191.252 22.919,190.758 23.444 C 190.265 23.970,189.546 24.400,189.161 24.400 C 188.776 24.400,187.927 24.850,187.273 25.400 C 186.619 25.950,185.913 26.400,185.704 26.400 C 185.495 26.400,185.007 26.750,184.621 27.177 C 184.234 27.605,183.410 28.066,182.790 28.202 C 182.170 28.338,181.190 28.889,180.611 29.425 C 180.032 29.961,179.208 30.400,178.779 30.400 C 178.351 30.400,177.644 30.756,177.209 31.191 C 176.774 31.626,175.829 32.265,175.109 32.612 C 172.609 33.817,170.998 34.797,170.575 35.370 C 170.342 35.687,169.622 36.076,168.975 36.234 C 168.329 36.392,167.291 36.944,166.669 37.461 C 166.047 37.977,165.296 38.400,165.000 38.400 C 164.704 38.400,163.951 38.805,163.328 39.300 C 162.704 39.795,161.844 40.394,161.417 40.631 C 158.240 42.393,160.815 46.596,166.800 49.417 C 167.570 49.780,168.560 50.396,169.000 50.786 C 169.440 51.176,170.332 51.621,170.982 51.776 C 171.632 51.930,172.397 52.390,172.683 52.797 C 172.968 53.204,173.722 53.651,174.359 53.791 C 174.996 53.931,175.834 54.395,176.221 54.823 C 176.607 55.250,177.152 55.600,177.431 55.600 C 177.710 55.600,178.473 56.050,179.127 56.600 C 179.781 57.150,180.595 57.600,180.937 57.600 C 181.279 57.600,182.032 58.039,182.611 58.575 C 183.190 59.111,184.234 59.676,184.932 59.829 C 185.629 59.982,186.435 60.443,186.723 60.854 C 187.010 61.264,187.491 61.600,187.792 61.600 C 188.093 61.600,188.860 62.038,189.496 62.574 C 190.133 63.110,191.124 63.666,191.698 63.810 C 192.272 63.954,192.833 64.308,192.943 64.596 C 193.054 64.884,193.832 65.345,194.672 65.621 C 195.512 65.897,196.421 66.434,196.690 66.815 C 196.960 67.196,197.815 67.626,198.590 67.772 C 199.365 67.917,200.442 68.478,200.982 69.018 C 201.522 69.558,202.214 70.000,202.520 70.000 C 202.826 70.000,203.402 70.360,203.800 70.800 C 204.198 71.240,204.752 71.600,205.031 71.600 C 205.310 71.600,206.047 72.023,206.669 72.539 C 207.291 73.056,208.332 73.608,208.982 73.767 C 209.632 73.926,210.402 74.397,210.694 74.812 C 210.985 75.228,211.850 75.686,212.617 75.830 C 213.384 75.973,214.154 76.346,214.329 76.658 C 214.649 77.231,216.228 78.205,218.800 79.417 C 219.570 79.780,220.560 80.396,221.000 80.786 C 221.440 81.176,222.332 81.621,222.982 81.776 C 223.632 81.930,224.397 82.390,224.683 82.797 C 224.968 83.204,225.722 83.651,226.359 83.791 C 226.996 83.931,227.834 84.395,228.221 84.823 C 228.607 85.250,229.152 85.600,229.431 85.600 C 229.710 85.600,230.460 86.038,231.096 86.574 C 231.733 87.110,232.751 87.673,233.359 87.825 C 233.967 87.978,234.559 88.348,234.674 88.648 C 234.789 88.947,235.629 89.412,236.541 89.679 C 237.454 89.947,238.435 90.488,238.723 90.883 C 239.010 91.277,239.491 91.600,239.792 91.600 C 240.093 91.600,240.847 92.025,241.469 92.545 C 242.091 93.065,243.050 93.631,243.600 93.803 C 244.150 93.974,244.819 94.425,245.086 94.805 C 245.353 95.184,246.147 95.609,246.850 95.750 C 247.553 95.891,248.369 96.348,248.662 96.767 C 248.956 97.186,249.917 97.651,250.798 97.800 C 251.710 97.954,252.400 98.295,252.400 98.592 C 252.400 98.879,253.085 99.387,253.923 99.722 C 254.760 100.057,255.682 100.617,255.972 100.966 C 256.261 101.315,256.732 101.600,257.018 101.600 C 257.304 101.600,258.047 102.023,258.669 102.539 C 259.291 103.056,260.289 103.598,260.886 103.743 C 261.483 103.889,262.426 104.462,262.981 105.017 L 263.990 106.026 264.095 165.199 C 264.194 220.753,264.242 224.414,264.894 225.066 C 265.896 226.068,268.326 225.979,269.192 224.909 C 269.571 224.441,270.542 223.935,271.350 223.783 C 272.158 223.631,273.048 223.181,273.328 222.782 C 273.607 222.383,274.305 221.939,274.878 221.795 C 275.452 221.651,276.291 221.188,276.744 220.767 C 277.196 220.345,277.740 220.000,277.953 220.000 C 278.165 220.000,278.860 219.562,279.496 219.026 C 280.133 218.490,281.141 217.930,281.736 217.780 C 282.332 217.631,283.039 217.193,283.309 216.808 C 283.579 216.423,284.371 215.982,285.068 215.829 C 285.766 215.676,286.810 215.111,287.389 214.575 C 287.968 214.039,288.721 213.600,289.063 213.600 C 289.405 213.600,290.219 213.150,290.873 212.600 C 291.527 212.050,292.307 211.600,292.608 211.600 C 292.909 211.600,293.390 211.264,293.677 210.854 C 293.965 210.443,294.785 209.979,295.500 209.822 C 296.214 209.665,297.032 209.204,297.317 208.797 C 297.603 208.390,298.368 207.926,299.018 207.767 C 299.668 207.608,300.709 207.056,301.331 206.539 C 301.953 206.023,302.690 205.600,302.969 205.600 C 303.248 205.600,303.793 205.250,304.179 204.823 C 304.566 204.395,305.406 203.931,306.045 203.790 C 306.684 203.650,307.414 203.145,307.667 202.667 C 307.920 202.190,308.458 201.565,308.863 201.277 C 309.573 200.774,309.600 198.557,309.600 140.130 L 309.600 79.506 308.100 78.010 C 307.275 77.187,306.219 76.393,305.753 76.246 C 305.287 76.100,304.584 75.624,304.191 75.190 C 303.798 74.755,303.215 74.400,302.896 74.400 C 302.577 74.400,301.781 73.950,301.127 73.400 C 300.473 72.850,299.600 72.400,299.185 72.400 C 298.771 72.400,298.020 71.972,297.516 71.450 C 297.012 70.927,296.068 70.375,295.418 70.222 C 294.768 70.069,293.993 69.596,293.695 69.172 C 293.398 68.747,292.876 68.400,292.535 68.400 C 292.194 68.400,291.381 67.950,290.727 67.400 C 290.073 66.850,289.296 66.400,289.000 66.400 C 288.704 66.400,287.953 65.977,287.331 65.461 C 286.709 64.944,285.668 64.392,285.018 64.233 C 284.368 64.074,283.593 63.596,283.295 63.172 C 282.998 62.747,282.429 62.400,282.031 62.400 C 281.633 62.400,280.801 62.001,280.181 61.513 C 278.904 60.509,277.370 59.616,274.900 58.439 C 273.965 57.993,273.200 57.449,273.200 57.230 C 273.200 57.010,272.501 56.643,271.647 56.413 C 270.792 56.182,269.862 55.715,269.578 55.374 C 269.295 55.033,268.509 54.485,267.832 54.155 C 265.783 53.160,264.206 52.220,263.019 51.287 C 262.399 50.799,261.555 50.400,261.143 50.400 C 260.732 50.400,260.018 49.967,259.557 49.437 C 259.097 48.907,258.099 48.357,257.339 48.215 C 256.579 48.072,255.861 47.704,255.744 47.397 C 255.626 47.090,254.937 46.643,254.213 46.404 C 253.489 46.165,252.577 45.617,252.186 45.185 C 251.796 44.753,251.215 44.400,250.896 44.400 C 250.577 44.400,249.781 43.950,249.127 43.400 C 248.473 42.850,247.591 42.400,247.167 42.400 C 246.742 42.400,246.018 41.967,245.557 41.437 C 245.097 40.907,244.110 40.360,243.365 40.220 C 242.620 40.080,241.821 39.613,241.591 39.183 C 241.360 38.752,240.889 38.400,240.544 38.400 C 240.198 38.400,239.381 37.950,238.727 37.400 C 238.073 36.850,237.296 36.400,237.000 36.400 C 236.704 36.400,235.953 35.977,235.331 35.461 C 234.709 34.944,233.668 34.392,233.018 34.233 C 232.368 34.074,231.593 33.596,231.295 33.172 C 230.998 32.747,230.429 32.400,230.031 32.400 C 229.633 32.400,228.801 32.001,228.181 31.513 C 226.904 30.509,225.370 29.616,222.900 28.439 C 221.965 27.993,221.200 27.449,221.200 27.230 C 221.200 27.010,220.442 26.627,219.516 26.377 C 218.590 26.128,217.645 25.670,217.416 25.359 C 217.002 24.796,215.378 23.810,212.891 22.612 C 212.171 22.265,211.226 21.626,210.791 21.191 C 210.356 20.756,209.647 20.400,209.216 20.400 C 208.785 20.400,208.001 19.935,207.474 19.366 C 206.497 18.313,201.226 17.576,199.600 18.265 M145.691 106.416 C 145.191 106.617,144.681 107.044,144.558 107.366 C 144.434 107.688,143.763 108.072,143.067 108.219 C 142.370 108.366,141.440 108.810,141.000 109.205 C 140.560 109.600,139.570 110.220,138.800 110.583 C 136.683 111.581,135.069 112.531,133.819 113.513 C 133.199 114.001,132.367 114.400,131.969 114.400 C 131.571 114.400,131.002 114.747,130.705 115.172 C 130.407 115.596,129.632 116.074,128.982 116.233 C 128.332 116.392,127.291 116.944,126.669 117.461 C 126.047 117.977,125.296 118.400,125.000 118.400 C 124.704 118.400,123.953 118.825,123.331 119.345 C 122.709 119.865,121.812 120.412,121.337 120.560 C 120.862 120.709,120.377 121.084,120.258 121.393 C 120.139 121.703,119.421 122.072,118.661 122.215 C 117.901 122.357,116.903 122.907,116.443 123.437 C 115.982 123.967,115.253 124.400,114.823 124.400 C 114.393 124.400,113.556 124.850,112.962 125.400 C 112.369 125.950,111.577 126.400,111.204 126.400 C 110.830 126.400,110.202 126.755,109.809 127.190 C 109.416 127.624,108.713 128.099,108.247 128.245 C 107.781 128.390,106.891 128.935,106.269 129.455 C 105.647 129.975,104.819 130.400,104.428 130.400 C 104.037 130.400,103.231 130.850,102.638 131.400 C 102.044 131.950,101.217 132.400,100.800 132.400 C 100.383 132.400,99.556 132.850,98.962 133.400 C 98.369 133.950,97.667 134.400,97.404 134.400 C 97.140 134.400,96.607 134.750,96.221 135.177 C 95.834 135.605,94.996 136.069,94.359 136.209 C 93.722 136.349,92.968 136.796,92.683 137.203 C 92.397 137.610,91.632 138.070,90.982 138.224 C 90.332 138.379,89.440 138.824,89.000 139.214 C 88.560 139.604,87.570 140.220,86.800 140.583 C 84.683 141.581,83.069 142.531,81.819 143.513 C 81.199 144.001,80.367 144.400,79.969 144.400 C 79.571 144.400,78.994 144.759,78.687 145.197 C 78.380 145.636,77.572 146.106,76.892 146.242 C 76.212 146.378,75.252 146.919,74.758 147.444 C 74.265 147.970,73.546 148.400,73.161 148.400 C 72.776 148.400,71.953 148.825,71.331 149.345 C 70.709 149.865,69.812 150.412,69.337 150.560 C 68.862 150.709,68.379 151.077,68.264 151.378 C 68.149 151.678,67.516 152.043,66.859 152.187 C 66.201 152.332,65.190 152.889,64.611 153.425 C 64.032 153.961,63.208 154.400,62.779 154.400 C 62.351 154.400,61.644 154.756,61.209 155.191 C 60.774 155.626,59.829 156.265,59.109 156.612 C 56.622 157.810,54.998 158.796,54.584 159.359 C 54.355 159.670,53.410 160.128,52.484 160.377 C 51.558 160.627,50.800 161.010,50.800 161.230 C 50.800 161.449,50.035 161.995,49.100 162.442 C 45.783 164.030,44.545 164.804,43.380 166.021 L 42.200 167.253 42.200 228.584 C 42.200 297.029,41.951 291.170,44.885 291.757 C 45.569 291.894,46.380 292.364,46.687 292.803 C 46.994 293.241,47.491 293.600,47.792 293.600 C 48.093 293.600,48.873 294.050,49.527 294.600 C 50.181 295.150,50.995 295.600,51.337 295.600 C 51.679 295.600,52.432 296.039,53.011 296.575 C 53.590 297.111,54.601 297.668,55.259 297.813 C 55.916 297.957,56.551 298.327,56.668 298.634 C 56.786 298.941,57.613 299.412,58.506 299.679 C 59.399 299.946,60.542 300.578,61.046 301.083 C 61.551 301.587,62.214 302.000,62.520 302.000 C 62.826 302.000,63.387 302.344,63.767 302.764 C 64.148 303.184,64.933 303.647,65.512 303.792 C 66.091 303.938,66.791 304.380,67.068 304.775 C 67.345 305.171,68.147 305.609,68.850 305.750 C 69.553 305.891,70.375 306.357,70.676 306.787 C 70.977 307.217,71.850 307.686,72.617 307.830 C 73.384 307.973,74.154 308.346,74.329 308.658 C 74.649 309.231,76.228 310.205,78.800 311.417 C 79.570 311.780,80.586 312.433,81.057 312.868 C 81.680 313.442,82.531 313.674,84.161 313.712 C 88.205 313.807,87.786 320.591,87.904 253.113 C 88.021 186.625,87.694 193.120,91.000 191.524 C 93.895 190.126,95.349 189.234,95.671 188.658 C 95.846 188.346,96.616 187.973,97.383 187.830 C 98.150 187.686,99.015 187.228,99.306 186.812 C 99.598 186.397,100.368 185.926,101.018 185.767 C 101.668 185.608,102.709 185.056,103.331 184.539 C 103.953 184.023,104.690 183.600,104.969 183.600 C 105.248 183.600,105.793 183.250,106.179 182.823 C 106.566 182.395,107.406 181.931,108.045 181.790 C 108.684 181.650,109.387 181.197,109.608 180.785 C 109.829 180.372,110.642 179.916,111.415 179.771 C 112.187 179.626,113.040 179.196,113.310 178.815 C 113.579 178.434,114.488 177.897,115.328 177.621 C 116.168 177.345,116.948 176.879,117.061 176.584 C 117.174 176.290,117.773 175.938,118.392 175.802 C 119.011 175.666,119.834 175.205,120.221 174.777 C 120.607 174.350,121.174 174.000,121.480 174.000 C 121.786 174.000,122.478 173.558,123.018 173.018 C 123.558 172.478,124.635 171.917,125.410 171.772 C 126.185 171.626,127.048 171.181,127.328 170.782 C 127.607 170.383,128.309 169.938,128.888 169.792 C 129.467 169.647,130.252 169.184,130.633 168.764 C 131.013 168.344,131.552 168.000,131.831 168.000 C 132.110 168.000,132.860 167.562,133.496 167.026 C 134.133 166.490,135.141 165.930,135.736 165.780 C 136.332 165.631,137.048 165.182,137.327 164.783 C 137.607 164.383,138.368 163.930,139.018 163.776 C 139.668 163.621,140.560 163.176,141.000 162.786 C 141.440 162.396,142.430 161.780,143.200 161.417 C 145.772 160.205,147.351 159.231,147.671 158.658 C 147.846 158.346,148.616 157.973,149.383 157.830 C 150.150 157.686,151.015 157.228,151.306 156.812 C 151.598 156.397,152.368 155.926,153.018 155.767 C 153.668 155.608,154.709 155.056,155.331 154.539 C 155.953 154.023,156.690 153.600,156.969 153.600 C 157.248 153.600,157.793 153.250,158.179 152.823 C 158.566 152.395,159.426 151.926,160.090 151.780 C 160.771 151.631,161.380 151.198,161.488 150.786 C 161.614 150.304,162.209 149.968,163.241 149.793 C 164.101 149.648,165.028 149.213,165.302 148.826 C 165.576 148.439,166.488 147.897,167.328 147.621 C 168.168 147.345,168.946 146.884,169.057 146.596 C 169.167 146.308,169.728 145.954,170.302 145.810 C 170.876 145.666,171.867 145.110,172.504 144.574 C 173.140 144.038,173.907 143.600,174.208 143.600 C 174.509 143.600,174.990 143.277,175.277 142.883 C 175.565 142.488,176.546 141.947,177.459 141.679 C 178.371 141.412,179.211 140.947,179.326 140.648 C 179.441 140.348,180.033 139.978,180.641 139.825 C 181.249 139.673,182.267 139.110,182.904 138.574 C 183.540 138.038,184.261 137.600,184.505 137.600 C 184.749 137.600,185.320 137.263,185.774 136.851 C 186.228 136.439,187.132 135.932,187.783 135.723 C 188.433 135.515,189.243 134.889,189.583 134.332 C 189.922 133.775,190.541 132.835,190.957 132.243 C 191.969 130.804,191.336 129.383,189.306 128.535 C 188.485 128.192,187.590 127.592,187.316 127.202 C 187.043 126.812,186.190 126.375,185.421 126.230 C 184.651 126.086,183.871 125.699,183.688 125.371 C 183.353 124.772,181.806 123.811,179.200 122.583 C 178.430 122.220,177.440 121.604,177.000 121.214 C 176.560 120.824,175.668 120.379,175.018 120.224 C 174.368 120.070,173.593 119.596,173.295 119.172 C 172.998 118.747,172.429 118.400,172.031 118.400 C 171.633 118.400,170.801 118.001,170.181 117.513 C 168.904 116.509,167.370 115.616,164.900 114.439 C 163.965 113.993,163.200 113.449,163.200 113.230 C 163.200 113.010,162.442 112.627,161.516 112.377 C 160.590 112.128,159.645 111.670,159.416 111.359 C 158.992 110.783,157.311 109.770,154.800 108.578 C 154.030 108.213,153.260 107.670,153.089 107.373 C 152.426 106.219,147.702 105.608,145.691 106.416 M145.694 242.410 C 144.058 243.075,144.000 243.978,144.000 268.626 L 144.000 292.400 144.900 293.219 C 145.395 293.669,146.166 294.389,146.614 294.819 C 147.062 295.249,147.633 295.600,147.883 295.600 C 148.134 295.600,148.860 296.038,149.496 296.574 C 150.133 297.110,151.124 297.666,151.698 297.810 C 152.272 297.954,152.833 298.308,152.943 298.596 C 153.054 298.884,153.832 299.345,154.672 299.621 C 155.512 299.897,156.421 300.434,156.690 300.815 C 156.960 301.196,157.815 301.626,158.590 301.772 C 159.365 301.917,160.442 302.478,160.982 303.018 C 161.522 303.558,162.214 304.000,162.520 304.000 C 162.826 304.000,163.387 304.344,163.767 304.764 C 164.148 305.184,164.933 305.647,165.512 305.792 C 166.091 305.938,166.791 306.380,167.068 306.775 C 167.345 307.171,168.147 307.609,168.850 307.750 C 169.553 307.891,170.375 308.357,170.676 308.787 C 170.977 309.217,171.850 309.686,172.617 309.830 C 173.384 309.973,174.154 310.346,174.329 310.658 C 174.649 311.231,176.228 312.205,178.800 313.417 C 179.570 313.780,180.560 314.396,181.000 314.786 C 181.440 315.176,182.332 315.621,182.982 315.776 C 183.632 315.930,184.397 316.390,184.683 316.797 C 184.968 317.204,185.722 317.651,186.359 317.791 C 186.996 317.931,187.834 318.395,188.221 318.823 C 188.607 319.250,189.152 319.600,189.431 319.600 C 189.710 319.600,190.473 320.050,191.127 320.600 C 191.781 321.150,192.595 321.600,192.937 321.600 C 193.279 321.600,194.032 322.039,194.611 322.575 C 195.190 323.111,196.234 323.676,196.932 323.829 C 197.629 323.982,198.435 324.443,198.723 324.854 C 199.010 325.264,199.491 325.600,199.792 325.600 C 200.093 325.600,200.847 326.025,201.469 326.545 C 202.091 327.065,203.050 327.631,203.600 327.803 C 204.150 327.974,204.819 328.425,205.086 328.805 C 205.353 329.184,206.147 329.609,206.850 329.750 C 207.553 329.891,208.365 330.344,208.655 330.757 C 208.944 331.169,209.815 331.626,210.590 331.772 C 211.365 331.917,212.442 332.478,212.982 333.018 C 213.522 333.558,214.214 334.000,214.520 334.000 C 214.826 334.000,215.402 334.360,215.800 334.800 C 216.198 335.240,216.752 335.600,217.031 335.600 C 217.310 335.600,218.047 336.023,218.669 336.539 C 219.291 337.056,220.332 337.608,220.982 337.767 C 221.632 337.926,222.393 338.383,222.673 338.783 C 222.952 339.182,223.681 339.633,224.291 339.785 C 224.901 339.938,225.703 340.335,226.072 340.668 C 226.814 341.336,228.648 342.403,230.800 343.417 C 231.570 343.780,232.560 344.396,233.000 344.786 C 233.440 345.176,234.332 345.621,234.982 345.776 C 235.632 345.930,236.397 346.390,236.683 346.797 C 236.968 347.204,237.722 347.651,238.359 347.791 C 238.996 347.931,239.834 348.395,240.221 348.823 C 240.607 349.250,241.152 349.600,241.431 349.600 C 241.710 349.600,242.460 350.038,243.096 350.574 C 243.733 351.110,244.751 351.673,245.359 351.825 C 245.967 351.978,246.558 352.346,246.672 352.644 C 247.194 354.004,252.498 354.040,253.255 352.687 C 253.439 352.358,254.075 351.968,254.668 351.819 C 255.261 351.670,256.267 351.110,256.904 350.574 C 257.540 350.038,258.290 349.600,258.569 349.600 C 258.848 349.600,259.393 349.250,259.779 348.823 C 260.166 348.395,261.004 347.931,261.641 347.791 C 262.278 347.651,263.032 347.204,263.317 346.797 C 263.603 346.390,264.368 345.930,265.018 345.776 C 265.668 345.621,266.560 345.176,267.000 344.786 C 267.440 344.396,268.430 343.780,269.200 343.417 C 271.664 342.256,273.389 341.222,273.806 340.656 C 274.029 340.353,274.794 339.977,275.505 339.821 C 276.217 339.665,277.032 339.204,277.317 338.797 C 277.603 338.390,278.368 337.926,279.018 337.767 C 279.668 337.608,280.709 337.056,281.331 336.539 C 281.953 336.023,282.696 335.600,282.982 335.600 C 283.268 335.600,283.739 335.315,284.028 334.966 C 284.318 334.617,285.226 334.063,286.046 333.735 C 286.867 333.406,287.633 332.892,287.748 332.591 C 287.864 332.290,288.602 331.923,289.389 331.776 C 290.176 331.628,291.048 331.181,291.328 330.782 C 291.607 330.383,292.305 329.939,292.878 329.795 C 293.452 329.651,294.291 329.188,294.744 328.767 C 295.196 328.345,295.740 328.000,295.953 328.000 C 296.165 328.000,296.847 327.576,297.469 327.058 C 298.091 326.540,299.275 325.896,300.100 325.627 C 300.925 325.358,301.600 324.919,301.600 324.652 C 301.600 324.385,302.410 323.949,303.400 323.684 C 304.390 323.420,305.200 323.016,305.200 322.787 C 305.200 322.559,305.965 322.007,306.900 321.561 C 309.726 320.214,311.378 319.236,311.806 318.656 C 312.029 318.353,312.794 317.977,313.505 317.821 C 314.217 317.665,315.032 317.204,315.317 316.797 C 315.603 316.390,316.368 315.926,317.018 315.767 C 317.668 315.608,318.709 315.056,319.331 314.539 C 319.953 314.023,320.690 313.600,320.969 313.600 C 321.248 313.600,321.793 313.250,322.179 312.823 C 322.566 312.395,323.406 311.931,324.045 311.790 C 324.684 311.650,325.387 311.197,325.608 310.785 C 325.829 310.372,326.642 309.916,327.415 309.771 C 328.187 309.626,329.048 309.181,329.328 308.782 C 329.607 308.383,330.368 307.926,331.018 307.767 C 331.668 307.608,332.709 307.056,333.331 306.539 C 333.953 306.023,334.690 305.600,334.969 305.600 C 335.248 305.600,335.802 305.240,336.200 304.800 C 336.598 304.360,337.174 304.000,337.480 304.000 C 337.786 304.000,338.478 303.558,339.018 303.018 C 339.558 302.478,340.635 301.917,341.410 301.772 C 342.185 301.626,343.048 301.181,343.328 300.782 C 343.607 300.383,344.309 299.938,344.888 299.792 C 345.467 299.647,346.252 299.184,346.633 298.764 C 347.013 298.344,347.552 298.000,347.831 298.000 C 348.110 298.000,348.847 297.575,349.469 297.055 C 350.091 296.535,351.050 295.975,351.600 295.811 C 352.150 295.647,352.960 295.181,353.400 294.775 C 353.840 294.370,354.605 293.669,355.100 293.219 L 356.000 292.400 356.000 268.244 C 356.000 245.108,355.968 244.049,355.240 243.150 C 354.166 241.824,351.689 241.918,349.989 243.348 C 349.301 243.927,348.403 244.400,347.992 244.400 C 347.581 244.400,347.002 244.747,346.705 245.172 C 346.407 245.596,345.632 246.074,344.982 246.233 C 344.332 246.392,343.291 246.944,342.669 247.461 C 342.047 247.977,341.296 248.400,341.000 248.400 C 340.704 248.400,339.953 248.825,339.331 249.345 C 338.709 249.865,337.812 250.412,337.337 250.560 C 336.862 250.709,336.377 251.084,336.258 251.393 C 336.139 251.703,335.421 252.072,334.661 252.215 C 333.901 252.357,332.903 252.907,332.443 253.437 C 331.982 253.967,331.253 254.400,330.823 254.400 C 330.393 254.400,329.556 254.850,328.962 255.400 C 328.369 255.950,327.577 256.400,327.204 256.400 C 326.830 256.400,326.202 256.755,325.809 257.190 C 325.416 257.624,324.713 258.099,324.247 258.245 C 323.781 258.390,322.891 258.935,322.269 259.455 C 321.647 259.975,320.819 260.400,320.428 260.400 C 320.037 260.400,319.231 260.850,318.638 261.400 C 318.044 261.950,317.217 262.400,316.800 262.400 C 316.383 262.400,315.556 262.850,314.962 263.400 C 314.369 263.950,313.667 264.400,313.404 264.400 C 313.140 264.400,312.607 264.750,312.221 265.177 C 311.834 265.605,310.996 266.069,310.359 266.209 C 309.722 266.349,308.968 266.796,308.683 267.203 C 308.397 267.610,307.632 268.070,306.982 268.224 C 306.332 268.379,305.440 268.824,305.000 269.214 C 304.560 269.604,303.570 270.220,302.800 270.583 C 300.683 271.581,299.069 272.531,297.819 273.513 C 297.199 274.001,296.367 274.400,295.969 274.400 C 295.571 274.400,294.994 274.759,294.687 275.197 C 294.380 275.636,293.572 276.106,292.892 276.242 C 292.212 276.378,291.252 276.919,290.758 277.444 C 290.265 277.970,289.546 278.400,289.161 278.400 C 288.776 278.400,287.953 278.825,287.331 279.345 C 286.709 279.865,285.812 280.412,285.337 280.560 C 284.862 280.709,284.379 281.077,284.264 281.378 C 284.149 281.678,283.516 282.043,282.859 282.187 C 282.201 282.332,281.190 282.889,280.611 283.425 C 280.032 283.961,279.208 284.400,278.779 284.400 C 278.351 284.400,277.644 284.756,277.209 285.191 C 276.774 285.626,275.829 286.265,275.109 286.612 C 272.622 287.810,270.998 288.796,270.584 289.359 C 270.355 289.670,269.410 290.128,268.484 290.377 C 267.558 290.627,266.800 291.010,266.800 291.230 C 266.800 291.449,266.035 291.993,265.100 292.439 C 262.630 293.616,261.096 294.509,259.819 295.513 C 259.199 296.001,258.367 296.400,257.969 296.400 C 257.571 296.400,257.002 296.747,256.705 297.172 C 256.407 297.596,255.632 298.074,254.982 298.233 C 254.332 298.392,253.291 298.944,252.669 299.461 C 251.148 300.725,248.852 300.725,247.331 299.461 C 246.709 298.944,245.668 298.392,245.018 298.233 C 244.368 298.074,243.593 297.596,243.295 297.172 C 242.998 296.747,242.429 296.400,242.031 296.400 C 241.633 296.400,240.801 296.001,240.181 295.513 C 238.904 294.509,237.370 293.616,234.900 292.439 C 233.965 291.993,233.200 291.449,233.200 291.230 C 233.200 291.010,232.442 290.627,231.516 290.377 C 230.590 290.128,229.645 289.670,229.416 289.359 C 228.993 288.784,227.323 287.778,224.800 286.576 C 224.030 286.210,223.306 285.762,223.192 285.580 C 223.078 285.399,222.133 284.885,221.092 284.439 C 220.051 283.993,219.200 283.449,219.200 283.230 C 219.200 283.010,218.439 282.626,217.510 282.376 C 216.580 282.125,215.580 281.578,215.287 281.160 C 214.994 280.742,214.509 280.400,214.208 280.400 C 213.907 280.400,213.127 279.950,212.473 279.400 C 211.819 278.850,211.066 278.400,210.800 278.400 C 210.534 278.400,209.781 277.950,209.127 277.400 C 208.473 276.850,207.591 276.400,207.167 276.400 C 206.742 276.400,206.018 275.967,205.557 275.437 C 205.097 274.907,204.110 274.360,203.365 274.220 C 202.620 274.080,201.821 273.613,201.591 273.183 C 201.360 272.752,200.889 272.400,200.544 272.400 C 200.198 272.400,199.381 271.950,198.727 271.400 C 198.073 270.850,197.296 270.400,197.000 270.400 C 196.704 270.400,195.953 269.977,195.331 269.461 C 194.709 268.944,193.668 268.392,193.018 268.233 C 192.368 268.074,191.593 267.596,191.295 267.172 C 190.998 266.747,190.429 266.400,190.031 266.400 C 189.633 266.400,188.801 266.001,188.181 265.513 C 186.904 264.509,185.370 263.616,182.900 262.439 C 181.965 261.993,181.200 261.449,181.200 261.230 C 181.200 261.010,180.442 260.627,179.516 260.377 C 178.590 260.128,177.645 259.670,177.416 259.359 C 177.002 258.796,175.378 257.810,172.891 256.612 C 172.171 256.265,171.226 255.626,170.791 255.191 C 170.356 254.756,169.639 254.400,169.197 254.400 C 168.756 254.400,168.018 253.967,167.557 253.437 C 167.097 252.907,166.069 252.352,165.274 252.203 C 164.478 252.053,163.586 251.587,163.291 251.166 C 162.996 250.745,162.509 250.400,162.208 250.400 C 161.907 250.400,161.127 249.950,160.473 249.400 C 159.819 248.850,159.066 248.400,158.800 248.400 C 158.534 248.400,157.781 247.950,157.127 247.400 C 156.473 246.850,155.600 246.400,155.185 246.400 C 154.771 246.400,154.020 245.972,153.516 245.450 C 153.012 244.927,152.060 244.376,151.400 244.226 C 150.740 244.075,149.930 243.620,149.600 243.215 C 148.866 242.314,146.917 241.913,145.694 242.410 " stroke="none" fill="#3c94d4" fill-rule="evenodd"></path><path id="path1" d="M146.200 46.283 C 145.760 46.388,144.988 46.907,144.484 47.437 C 143.980 47.967,143.215 48.400,142.784 48.400 C 142.353 48.400,141.644 48.756,141.209 49.191 C 140.774 49.626,139.829 50.265,139.109 50.612 C 137.013 51.622,135.429 52.562,134.219 53.513 C 133.599 54.001,132.783 54.400,132.404 54.400 C 132.026 54.400,131.231 54.850,130.638 55.400 C 130.044 55.950,129.217 56.400,128.800 56.400 C 128.383 56.400,127.556 56.850,126.962 57.400 C 126.369 57.950,125.667 58.400,125.404 58.400 C 125.140 58.400,124.607 58.750,124.221 59.177 C 123.834 59.605,122.996 60.069,122.359 60.209 C 121.722 60.349,120.968 60.796,120.683 61.203 C 120.397 61.610,119.632 62.070,118.982 62.224 C 118.332 62.379,117.440 62.824,117.000 63.214 C 116.560 63.604,115.570 64.220,114.800 64.583 C 112.683 65.581,111.069 66.531,109.819 67.513 C 109.199 68.001,108.367 68.400,107.969 68.400 C 107.571 68.400,106.994 68.759,106.687 69.197 C 106.380 69.636,105.572 70.106,104.892 70.242 C 104.212 70.378,103.252 70.919,102.758 71.444 C 102.265 71.970,101.546 72.400,101.161 72.400 C 100.776 72.400,99.953 72.825,99.331 73.345 C 98.709 73.865,97.812 74.412,97.337 74.560 C 96.862 74.709,96.379 75.077,96.264 75.378 C 96.149 75.678,95.516 76.043,94.859 76.187 C 94.201 76.332,93.190 76.889,92.611 77.425 C 92.032 77.961,91.208 78.400,90.779 78.400 C 90.351 78.400,89.644 78.756,89.209 79.191 C 88.774 79.626,87.829 80.265,87.109 80.612 C 84.622 81.810,82.998 82.796,82.584 83.359 C 82.355 83.670,81.410 84.128,80.484 84.377 C 79.558 84.627,78.800 85.010,78.800 85.230 C 78.800 85.449,78.035 85.993,77.100 86.439 C 74.630 87.616,73.096 88.509,71.819 89.513 C 71.199 90.001,70.367 90.400,69.969 90.400 C 69.571 90.400,69.002 90.747,68.705 91.172 C 68.407 91.596,67.632 92.074,66.982 92.233 C 66.332 92.392,65.291 92.944,64.669 93.461 C 64.047 93.977,63.296 94.400,63.000 94.400 C 62.704 94.400,61.927 94.850,61.273 95.400 C 60.619 95.950,59.866 96.400,59.600 96.400 C 59.334 96.400,58.581 96.850,57.927 97.400 C 57.273 97.950,56.425 98.400,56.041 98.400 C 55.658 98.400,54.953 98.850,54.475 99.400 C 53.997 99.950,53.253 100.400,52.823 100.400 C 52.393 100.400,51.556 100.850,50.962 101.400 C 50.369 101.950,49.620 102.400,49.299 102.400 C 48.978 102.400,48.181 102.850,47.527 103.400 C 46.873 103.950,46.127 104.407,45.869 104.417 C 45.611 104.426,44.680 105.069,43.800 105.846 L 42.200 107.258 42.200 131.587 C 42.200 154.950,42.230 155.950,42.962 156.758 C 43.941 157.840,46.107 157.880,47.084 156.835 C 47.478 156.415,48.479 155.944,49.310 155.789 C 50.140 155.634,51.040 155.196,51.310 154.815 C 51.579 154.434,52.488 153.897,53.328 153.621 C 54.168 153.345,54.946 152.884,55.057 152.596 C 55.167 152.308,55.728 151.954,56.302 151.810 C 56.876 151.666,57.867 151.110,58.504 150.574 C 59.140 150.038,59.907 149.600,60.208 149.600 C 60.509 149.600,60.990 149.277,61.277 148.883 C 61.565 148.488,62.546 147.947,63.459 147.679 C 64.371 147.412,65.211 146.947,65.326 146.648 C 65.441 146.348,66.033 145.978,66.641 145.825 C 67.249 145.673,68.267 145.110,68.904 144.574 C 69.540 144.038,70.290 143.600,70.569 143.600 C 70.848 143.600,71.393 143.250,71.779 142.823 C 72.166 142.395,73.004 141.931,73.641 141.791 C 74.278 141.651,75.032 141.204,75.317 140.797 C 75.603 140.390,76.368 139.930,77.018 139.776 C 77.668 139.621,78.560 139.176,79.000 138.786 C 79.440 138.396,80.430 137.780,81.200 137.417 C 83.806 136.189,85.353 135.228,85.688 134.629 C 85.871 134.301,86.651 133.914,87.421 133.770 C 88.190 133.625,89.048 133.181,89.328 132.782 C 89.607 132.383,90.368 131.926,91.018 131.767 C 91.668 131.608,92.709 131.056,93.331 130.539 C 93.953 130.023,94.696 129.600,94.982 129.600 C 95.268 129.600,95.739 129.315,96.028 128.966 C 96.318 128.617,97.240 128.057,98.077 127.722 C 98.915 127.387,99.600 126.879,99.600 126.592 C 99.600 126.295,100.290 125.954,101.202 125.800 C 102.083 125.651,103.036 125.198,103.320 124.793 C 103.604 124.388,104.309 123.938,104.888 123.792 C 105.467 123.647,106.252 123.184,106.633 122.764 C 107.013 122.344,107.552 122.000,107.831 122.000 C 108.110 122.000,108.860 121.562,109.496 121.026 C 110.133 120.490,111.141 119.930,111.736 119.780 C 112.332 119.631,113.044 119.187,113.319 118.794 C 113.594 118.401,114.580 117.875,115.510 117.624 C 116.439 117.374,117.200 116.990,117.200 116.770 C 117.200 116.551,117.965 116.007,118.900 115.561 C 121.726 114.214,123.378 113.236,123.806 112.656 C 124.029 112.353,124.794 111.977,125.505 111.821 C 126.217 111.665,127.032 111.204,127.317 110.797 C 127.603 110.390,128.368 109.926,129.018 109.767 C 129.668 109.608,130.709 109.056,131.331 108.539 C 131.953 108.023,132.690 107.600,132.969 107.600 C 133.248 107.600,133.793 107.250,134.179 106.823 C 134.566 106.395,135.406 105.931,136.045 105.790 C 136.684 105.650,137.387 105.197,137.608 104.785 C 137.829 104.372,138.642 103.916,139.415 103.771 C 140.187 103.626,141.048 103.181,141.328 102.782 C 141.607 102.383,142.368 101.930,143.018 101.776 C 143.668 101.621,144.560 101.184,145.000 100.805 C 147.393 98.740,151.200 98.758,152.700 100.842 C 152.976 101.224,153.722 101.651,154.359 101.791 C 154.996 101.931,155.834 102.395,156.221 102.823 C 156.607 103.250,157.152 103.600,157.431 103.600 C 157.710 103.600,158.473 104.050,159.127 104.600 C 159.781 105.150,160.595 105.600,160.937 105.600 C 161.279 105.600,162.032 106.039,162.611 106.575 C 163.190 107.111,164.234 107.676,164.932 107.829 C 165.629 107.982,166.435 108.443,166.723 108.854 C 167.010 109.264,167.491 109.600,167.792 109.600 C 168.093 109.600,168.860 110.038,169.496 110.574 C 170.133 111.110,171.124 111.666,171.698 111.810 C 172.272 111.954,172.833 112.308,172.943 112.596 C 173.054 112.884,173.832 113.345,174.672 113.621 C 175.512 113.897,176.421 114.434,176.690 114.815 C 176.960 115.196,177.815 115.626,178.590 115.772 C 179.365 115.917,180.442 116.478,180.982 117.018 C 181.522 117.558,182.214 118.000,182.520 118.000 C 182.826 118.000,183.387 118.344,183.767 118.764 C 184.148 119.184,184.933 119.647,185.512 119.792 C 186.091 119.938,186.791 120.380,187.068 120.775 C 187.345 121.171,188.147 121.609,188.850 121.750 C 189.553 121.891,190.375 122.357,190.676 122.787 C 190.977 123.217,191.850 123.686,192.617 123.830 C 193.384 123.973,194.154 124.346,194.329 124.658 C 194.649 125.231,196.228 126.205,198.800 127.417 C 199.570 127.780,200.560 128.396,201.000 128.786 C 201.440 129.176,202.332 129.621,202.982 129.776 C 203.632 129.930,204.397 130.390,204.683 130.797 C 204.968 131.204,205.722 131.651,206.359 131.791 C 206.996 131.931,207.834 132.395,208.221 132.823 C 208.607 133.250,209.152 133.600,209.431 133.600 C 209.710 133.600,210.460 134.038,211.096 134.574 C 211.733 135.110,212.751 135.673,213.359 135.825 C 213.967 135.978,214.559 136.348,214.674 136.648 C 214.789 136.947,215.613 137.412,216.506 137.679 C 217.399 137.946,218.542 138.578,219.046 139.083 C 219.551 139.587,220.214 140.000,220.520 140.000 C 220.826 140.000,221.387 140.344,221.767 140.764 C 222.148 141.184,222.933 141.647,223.512 141.792 C 224.091 141.938,224.791 142.380,225.068 142.775 C 225.345 143.171,226.147 143.609,226.850 143.750 C 227.553 143.891,228.363 144.341,228.650 144.750 C 228.937 145.159,229.749 145.610,230.456 145.751 C 231.163 145.893,232.024 146.282,232.370 146.616 C 233.347 147.558,236.546 149.585,237.069 149.593 C 237.327 149.597,238.047 150.023,238.669 150.539 C 239.291 151.056,240.332 151.608,240.982 151.767 C 241.632 151.926,242.397 152.390,242.683 152.797 C 242.968 153.204,243.722 153.651,244.359 153.791 C 244.996 153.931,245.834 154.395,246.221 154.823 C 246.607 155.250,247.131 155.600,247.384 155.600 C 247.637 155.600,248.455 156.050,249.200 156.600 C 250.995 157.925,253.162 157.938,254.678 156.635 L 255.800 155.669 255.800 131.871 L 255.800 108.072 254.026 106.271 C 253.042 105.273,251.724 104.365,251.069 104.234 C 250.418 104.104,249.687 103.726,249.443 103.395 C 248.995 102.787,247.364 101.797,244.800 100.576 C 244.030 100.210,243.306 99.762,243.192 99.580 C 243.078 99.399,242.133 98.885,241.092 98.439 C 240.051 97.993,239.200 97.449,239.200 97.230 C 239.200 97.010,238.439 96.626,237.510 96.376 C 236.580 96.125,235.580 95.578,235.287 95.160 C 234.994 94.742,234.509 94.400,234.208 94.400 C 233.907 94.400,233.127 93.950,232.473 93.400 C 231.819 92.850,231.066 92.400,230.800 92.400 C 230.534 92.400,229.781 91.950,229.127 91.400 C 228.473 90.850,227.591 90.400,227.167 90.400 C 226.742 90.400,226.018 89.967,225.557 89.437 C 225.097 88.907,224.099 88.357,223.339 88.215 C 222.579 88.072,221.861 87.703,221.742 87.393 C 221.623 87.084,221.138 86.709,220.663 86.560 C 220.188 86.412,219.291 85.865,218.669 85.345 C 218.047 84.825,217.296 84.400,217.000 84.400 C 216.704 84.400,215.953 83.977,215.331 83.461 C 214.709 82.944,213.668 82.392,213.018 82.233 C 212.368 82.074,211.593 81.596,211.295 81.172 C 210.998 80.747,210.429 80.400,210.031 80.400 C 209.633 80.400,208.801 80.001,208.181 79.513 C 206.904 78.509,205.370 77.616,202.900 76.439 C 201.965 75.993,201.200 75.449,201.200 75.230 C 201.200 75.010,200.442 74.627,199.516 74.377 C 198.590 74.128,197.645 73.670,197.416 73.359 C 197.002 72.796,195.378 71.810,192.891 70.612 C 192.171 70.265,191.226 69.626,190.791 69.191 C 190.356 68.756,189.647 68.400,189.216 68.400 C 188.785 68.400,188.020 67.973,187.516 67.451 C 187.012 66.929,185.986 66.388,185.236 66.248 C 184.485 66.109,183.620 65.636,183.313 65.197 C 183.006 64.759,182.509 64.400,182.208 64.400 C 181.907 64.400,181.127 63.950,180.473 63.400 C 179.819 62.850,179.066 62.400,178.800 62.400 C 178.534 62.400,177.781 61.950,177.127 61.400 C 176.473 60.850,175.591 60.400,175.167 60.400 C 174.742 60.400,174.018 59.967,173.557 59.437 C 173.097 58.907,172.110 58.360,171.365 58.220 C 170.620 58.080,169.821 57.613,169.591 57.183 C 169.360 56.752,168.889 56.400,168.544 56.400 C 168.198 56.400,167.381 55.950,166.727 55.400 C 166.073 54.850,165.296 54.400,165.000 54.400 C 164.704 54.400,163.953 53.977,163.331 53.461 C 162.709 52.944,161.668 52.392,161.018 52.233 C 160.368 52.074,159.593 51.596,159.295 51.172 C 158.998 50.747,158.419 50.400,158.008 50.400 C 157.597 50.400,156.753 49.988,156.131 49.484 C 155.509 48.981,154.550 48.339,154.000 48.058 C 153.450 47.777,152.370 47.199,151.600 46.774 C 150.279 46.045,148.053 45.842,146.200 46.283 M312.962 87.242 C 312.221 88.061,312.197 89.711,312.092 147.324 L 311.985 206.565 311.123 207.482 C 310.648 207.987,310.029 208.400,309.746 208.400 C 309.463 208.400,308.909 208.733,308.516 209.140 C 308.122 209.548,307.229 210.073,306.532 210.308 C 305.835 210.544,304.890 211.110,304.432 211.568 C 303.974 212.026,303.240 212.400,302.800 212.400 C 302.360 212.400,301.644 212.756,301.209 213.191 C 300.774 213.626,299.829 214.265,299.109 214.612 C 296.622 215.810,294.998 216.796,294.584 217.359 C 294.355 217.670,293.410 218.128,292.484 218.377 C 291.558 218.627,290.800 219.010,290.800 219.230 C 290.800 219.449,290.035 219.993,289.100 220.439 C 286.630 221.616,285.096 222.509,283.819 223.513 C 283.199 224.001,282.367 224.400,281.969 224.400 C 281.571 224.400,281.002 224.747,280.705 225.172 C 280.407 225.596,279.632 226.074,278.982 226.233 C 278.332 226.392,277.291 226.944,276.669 227.461 C 276.047 227.977,275.296 228.400,275.000 228.400 C 274.704 228.400,273.927 228.850,273.273 229.400 C 272.619 229.950,271.866 230.400,271.600 230.400 C 271.334 230.400,270.581 230.850,269.927 231.400 C 269.273 231.950,268.425 232.400,268.041 232.400 C 267.658 232.400,266.953 232.850,266.475 233.400 C 265.997 233.950,265.253 234.400,264.823 234.400 C 264.393 234.400,263.556 234.850,262.962 235.400 C 262.369 235.950,261.620 236.400,261.299 236.400 C 260.978 236.400,260.181 236.850,259.527 237.400 C 258.873 237.950,258.110 238.400,257.831 238.400 C 257.552 238.400,257.007 238.750,256.621 239.177 C 256.234 239.605,255.410 240.066,254.790 240.202 C 254.170 240.338,253.190 240.889,252.611 241.425 C 252.032 241.961,251.208 242.400,250.779 242.400 C 250.351 242.400,249.644 242.756,249.209 243.191 C 248.774 243.626,247.829 244.265,247.109 244.612 C 244.609 245.817,242.998 246.797,242.575 247.370 C 242.342 247.687,241.622 248.073,240.975 248.226 C 240.329 248.379,239.440 248.824,239.000 249.214 C 238.560 249.604,237.570 250.220,236.800 250.583 C 234.683 251.581,233.069 252.531,231.819 253.513 C 231.199 254.001,230.367 254.400,229.969 254.400 C 229.571 254.400,229.002 254.747,228.705 255.172 C 228.407 255.596,227.632 256.074,226.982 256.233 C 226.332 256.392,225.291 256.944,224.669 257.461 C 224.047 257.977,223.296 258.400,223.000 258.400 C 222.704 258.400,221.927 258.850,221.273 259.400 C 220.619 259.950,219.866 260.400,219.600 260.400 C 219.334 260.400,218.581 260.850,217.927 261.400 C 217.273 261.950,216.394 262.400,215.973 262.400 C 215.551 262.400,214.980 262.765,214.703 263.210 C 214.427 263.656,213.526 264.202,212.703 264.425 C 211.705 264.694,211.013 265.202,210.629 265.944 C 210.312 266.557,209.771 267.292,209.426 267.578 C 208.186 268.607,209.453 271.600,211.128 271.600 C 211.391 271.600,211.997 272.050,212.475 272.600 C 212.953 273.150,213.568 273.600,213.841 273.600 C 214.115 273.600,214.860 274.038,215.496 274.574 C 216.133 275.110,217.124 275.666,217.698 275.810 C 218.272 275.954,218.833 276.308,218.943 276.596 C 219.054 276.884,219.832 277.345,220.672 277.621 C 221.512 277.897,222.421 278.434,222.690 278.815 C 222.960 279.196,223.815 279.626,224.590 279.772 C 225.365 279.917,226.442 280.478,226.982 281.018 C 227.522 281.558,228.214 282.000,228.520 282.000 C 228.826 282.000,229.387 282.344,229.767 282.764 C 230.148 283.184,230.933 283.647,231.512 283.792 C 232.091 283.938,232.791 284.380,233.068 284.775 C 233.345 285.171,234.147 285.609,234.850 285.750 C 235.553 285.891,236.375 286.357,236.676 286.787 C 236.977 287.217,237.850 287.686,238.617 287.830 C 239.384 287.973,240.154 288.346,240.329 288.658 C 240.649 289.231,242.228 290.205,244.800 291.417 C 245.570 291.780,246.619 292.464,247.132 292.938 C 248.523 294.225,254.685 294.219,256.067 292.930 C 256.580 292.451,257.500 291.935,258.111 291.784 C 258.721 291.632,259.399 291.176,259.615 290.771 C 259.832 290.366,260.642 289.916,261.415 289.771 C 262.187 289.626,263.040 289.199,263.310 288.822 C 263.579 288.445,264.393 287.933,265.119 287.683 C 265.844 287.433,266.903 286.862,267.473 286.414 C 268.042 285.966,268.726 285.600,268.992 285.600 C 269.258 285.600,269.796 285.247,270.186 284.815 C 270.577 284.383,271.489 283.835,272.213 283.596 C 272.937 283.357,273.626 282.910,273.744 282.603 C 273.861 282.296,274.602 281.923,275.389 281.776 C 276.176 281.628,277.040 281.194,277.310 280.811 C 277.579 280.428,278.250 279.974,278.800 279.803 C 279.350 279.631,280.309 279.065,280.931 278.545 C 281.553 278.025,282.290 277.600,282.569 277.600 C 282.848 277.600,283.393 277.250,283.779 276.823 C 284.166 276.395,285.004 275.931,285.641 275.791 C 286.278 275.651,287.032 275.204,287.317 274.797 C 287.603 274.390,288.368 273.930,289.018 273.776 C 289.668 273.621,290.560 273.176,291.000 272.786 C 291.440 272.396,292.430 271.780,293.200 271.417 C 295.664 270.256,297.389 269.222,297.806 268.656 C 298.029 268.353,298.794 267.977,299.505 267.821 C 300.217 267.665,301.032 267.204,301.317 266.797 C 301.603 266.390,302.368 265.926,303.018 265.767 C 303.668 265.608,304.709 265.056,305.331 264.539 C 305.953 264.023,306.696 263.600,306.982 263.600 C 307.268 263.600,307.739 263.315,308.028 262.966 C 308.318 262.617,309.240 262.057,310.077 261.722 C 310.915 261.387,311.600 260.879,311.600 260.592 C 311.600 260.295,312.290 259.954,313.202 259.800 C 314.083 259.651,315.036 259.198,315.320 258.793 C 315.604 258.388,316.309 257.938,316.888 257.792 C 317.467 257.647,318.252 257.184,318.633 256.764 C 319.013 256.344,319.552 256.000,319.831 256.000 C 320.110 256.000,320.860 255.562,321.496 255.026 C 322.133 254.490,323.141 253.930,323.736 253.780 C 324.332 253.631,325.044 253.187,325.319 252.794 C 325.594 252.401,326.580 251.875,327.510 251.624 C 328.439 251.374,329.200 250.990,329.200 250.770 C 329.200 250.551,329.965 250.007,330.900 249.561 C 333.726 248.214,335.378 247.236,335.806 246.656 C 336.029 246.353,336.794 245.977,337.505 245.821 C 338.217 245.665,339.032 245.204,339.317 244.797 C 339.603 244.390,340.368 243.926,341.018 243.767 C 341.668 243.608,342.709 243.056,343.331 242.539 C 343.953 242.023,344.690 241.600,344.969 241.600 C 345.248 241.600,345.793 241.250,346.179 240.823 C 346.566 240.395,347.406 239.931,348.045 239.790 C 348.684 239.650,349.387 239.197,349.608 238.785 C 349.829 238.372,350.642 237.916,351.415 237.771 C 352.187 237.626,353.056 237.169,353.345 236.757 C 353.635 236.344,354.431 235.894,355.115 235.757 C 358.050 235.170,357.800 241.107,357.800 171.923 L 357.800 109.929 356.856 109.165 C 356.336 108.744,355.570 108.400,355.153 108.400 C 354.736 108.400,354.018 107.967,353.557 107.437 C 353.097 106.907,352.099 106.357,351.339 106.215 C 350.579 106.072,349.861 105.703,349.742 105.393 C 349.623 105.084,349.138 104.709,348.663 104.560 C 348.188 104.412,347.291 103.865,346.669 103.345 C 346.047 102.825,345.296 102.400,345.000 102.400 C 344.704 102.400,343.953 101.977,343.331 101.461 C 342.709 100.944,341.668 100.392,341.018 100.233 C 340.368 100.074,339.593 99.596,339.295 99.172 C 338.998 98.747,338.429 98.400,338.031 98.400 C 337.633 98.400,336.801 98.001,336.181 97.513 C 334.904 96.509,333.370 95.616,330.900 94.439 C 329.965 93.993,329.200 93.449,329.200 93.230 C 329.200 93.010,328.442 92.627,327.516 92.377 C 326.590 92.128,325.645 91.670,325.416 91.359 C 325.002 90.796,323.378 89.810,320.891 88.612 C 320.171 88.265,319.226 87.626,318.791 87.191 C 317.641 86.041,314.020 86.072,312.962 87.242 M134.916 175.158 C 134.522 175.576,133.545 176.096,132.745 176.314 C 131.944 176.532,130.909 177.091,130.445 177.555 C 129.980 178.020,129.249 178.400,128.821 178.400 C 128.392 178.400,127.556 178.850,126.962 179.400 C 126.369 179.950,125.667 180.400,125.404 180.400 C 125.140 180.400,124.607 180.750,124.221 181.177 C 123.834 181.605,122.996 182.069,122.359 182.209 C 121.722 182.349,120.968 182.796,120.683 183.203 C 120.397 183.610,119.632 184.070,118.982 184.224 C 118.332 184.379,117.440 184.824,117.000 185.214 C 116.560 185.604,115.570 186.220,114.800 186.583 C 112.683 187.581,111.069 188.531,109.819 189.513 C 109.199 190.001,108.367 190.400,107.969 190.400 C 107.571 190.400,106.994 190.759,106.687 191.197 C 106.380 191.636,105.572 192.106,104.892 192.242 C 104.212 192.378,103.252 192.919,102.758 193.444 C 102.265 193.970,101.546 194.400,101.161 194.400 C 100.776 194.400,99.927 194.850,99.273 195.400 C 98.619 195.950,97.921 196.400,97.720 196.400 C 97.520 196.400,96.646 197.050,95.778 197.846 L 94.200 199.291 94.090 259.546 C 93.968 327.055,93.788 322.683,96.724 323.630 C 97.536 323.892,98.507 324.426,98.882 324.817 C 99.258 325.209,100.121 325.651,100.800 325.800 C 101.479 325.949,102.469 326.505,102.999 327.036 C 103.530 327.566,104.214 328.000,104.520 328.000 C 104.826 328.000,105.387 328.344,105.767 328.764 C 106.148 329.184,106.933 329.647,107.512 329.792 C 108.091 329.938,108.791 330.380,109.068 330.775 C 109.345 331.171,110.147 331.609,110.850 331.750 C 111.553 331.891,112.375 332.357,112.676 332.787 C 112.977 333.217,113.850 333.686,114.617 333.830 C 115.384 333.973,116.154 334.346,116.329 334.658 C 116.649 335.231,118.228 336.205,120.800 337.417 C 121.570 337.780,122.560 338.396,123.000 338.786 C 123.440 339.176,124.332 339.621,124.982 339.776 C 125.632 339.930,126.397 340.390,126.683 340.797 C 126.968 341.204,127.722 341.651,128.359 341.791 C 128.996 341.931,129.834 342.395,130.221 342.823 C 130.607 343.250,131.152 343.600,131.431 343.600 C 131.710 343.600,132.473 344.050,133.127 344.600 C 133.781 345.150,134.595 345.600,134.937 345.600 C 135.279 345.600,136.032 346.039,136.611 346.575 C 137.190 347.111,138.234 347.676,138.932 347.829 C 139.629 347.982,140.435 348.443,140.723 348.854 C 141.010 349.264,141.491 349.600,141.792 349.600 C 142.093 349.600,142.860 350.038,143.496 350.574 C 144.133 351.110,145.124 351.666,145.698 351.810 C 146.272 351.954,146.833 352.308,146.943 352.596 C 147.054 352.884,147.832 353.345,148.672 353.621 C 149.512 353.897,150.421 354.434,150.690 354.815 C 150.960 355.196,151.815 355.626,152.590 355.772 C 153.365 355.917,154.442 356.478,154.982 357.018 C 155.522 357.558,156.214 358.000,156.520 358.000 C 156.826 358.000,157.402 358.360,157.800 358.800 C 158.198 359.240,158.752 359.600,159.031 359.600 C 159.310 359.600,160.047 360.023,160.669 360.539 C 161.291 361.056,162.332 361.608,162.982 361.767 C 163.632 361.926,164.402 362.397,164.694 362.812 C 164.985 363.228,165.850 363.686,166.617 363.830 C 167.384 363.973,168.154 364.346,168.329 364.658 C 168.649 365.231,170.228 366.205,172.800 367.417 C 173.570 367.780,174.560 368.396,175.000 368.786 C 175.440 369.176,176.332 369.621,176.982 369.776 C 177.632 369.930,178.397 370.390,178.683 370.797 C 178.968 371.204,179.722 371.651,180.359 371.791 C 180.996 371.931,181.834 372.395,182.221 372.823 C 182.607 373.250,183.152 373.600,183.431 373.600 C 183.710 373.600,184.460 374.038,185.096 374.574 C 185.733 375.110,186.751 375.673,187.359 375.825 C 187.967 375.978,188.559 376.348,188.674 376.648 C 188.789 376.947,189.613 377.412,190.506 377.679 C 191.399 377.946,192.542 378.578,193.046 379.083 C 193.551 379.587,194.185 380.000,194.456 380.000 C 194.727 380.000,195.380 380.405,195.906 380.900 C 197.351 382.257,204.494 382.263,205.523 380.908 C 205.895 380.417,206.791 379.898,207.514 379.755 C 208.237 379.612,209.055 379.171,209.332 378.775 C 209.609 378.380,210.368 377.926,211.018 377.767 C 211.668 377.608,212.709 377.056,213.331 376.539 C 213.953 376.023,214.690 375.600,214.969 375.600 C 215.248 375.600,215.793 375.250,216.179 374.823 C 216.566 374.395,217.426 373.926,218.090 373.780 C 218.771 373.631,219.380 373.198,219.488 372.786 C 219.614 372.304,220.209 371.968,221.241 371.793 C 222.101 371.648,223.028 371.213,223.302 370.826 C 223.576 370.439,224.488 369.897,225.328 369.621 C 226.168 369.345,226.953 368.868,227.071 368.560 C 227.189 368.252,227.523 368.000,227.812 368.000 C 228.102 368.000,228.860 367.562,229.496 367.026 C 230.133 366.490,231.141 365.930,231.736 365.780 C 232.332 365.631,233.044 365.187,233.319 364.794 C 233.594 364.401,234.580 363.875,235.510 363.624 C 236.439 363.374,237.200 362.987,237.200 362.764 C 237.200 362.541,237.866 362.081,238.680 361.741 C 241.272 360.658,243.600 358.467,243.600 357.112 C 243.600 355.645,240.797 352.658,239.018 352.229 C 238.368 352.072,237.593 351.596,237.295 351.172 C 236.998 350.747,236.429 350.400,236.031 350.400 C 235.633 350.400,234.801 350.001,234.181 349.513 C 232.904 348.509,231.370 347.616,228.900 346.439 C 227.965 345.993,227.200 345.449,227.200 345.230 C 227.200 345.010,226.442 344.627,225.516 344.377 C 224.590 344.128,223.645 343.670,223.416 343.359 C 223.002 342.796,221.378 341.810,218.891 340.612 C 218.171 340.265,217.226 339.626,216.791 339.191 C 216.356 338.756,215.639 338.400,215.197 338.400 C 214.756 338.400,214.014 337.962,213.549 337.427 C 213.057 336.861,212.053 336.344,211.151 336.192 C 210.255 336.040,209.600 335.704,209.600 335.396 C 209.600 335.102,208.992 334.661,208.248 334.416 C 207.505 334.171,206.577 333.617,206.186 333.185 C 205.796 332.753,205.215 332.400,204.896 332.400 C 204.577 332.400,203.781 331.950,203.127 331.400 C 202.473 330.850,201.591 330.400,201.167 330.400 C 200.742 330.400,200.018 329.967,199.557 329.437 C 199.097 328.907,198.113 328.360,197.371 328.221 C 196.629 328.082,195.871 327.699,195.688 327.371 C 195.353 326.772,193.806 325.811,191.200 324.583 C 190.430 324.220,189.440 323.604,189.000 323.214 C 188.560 322.824,187.668 322.379,187.018 322.224 C 186.368 322.070,185.593 321.596,185.295 321.172 C 184.998 320.747,184.429 320.400,184.031 320.400 C 183.633 320.400,182.801 320.001,182.181 319.513 C 180.904 318.509,179.370 317.616,176.900 316.439 C 175.965 315.993,175.200 315.449,175.200 315.230 C 175.200 315.010,174.442 314.627,173.516 314.377 C 172.590 314.128,171.645 313.670,171.416 313.359 C 171.002 312.796,169.378 311.810,166.891 310.612 C 166.171 310.265,165.226 309.626,164.791 309.191 C 164.356 308.756,163.639 308.400,163.197 308.400 C 162.756 308.400,162.014 307.962,161.549 307.427 C 161.057 306.861,160.053 306.344,159.151 306.192 C 158.255 306.040,157.600 305.704,157.600 305.396 C 157.600 305.102,156.992 304.661,156.248 304.416 C 155.505 304.171,154.577 303.617,154.186 303.185 C 153.796 302.753,153.175 302.400,152.808 302.400 C 152.440 302.400,151.735 301.970,151.242 301.444 C 150.748 300.919,149.788 300.378,149.108 300.242 C 148.428 300.106,147.635 299.656,147.345 299.243 C 147.056 298.831,146.187 298.374,145.415 298.229 C 144.628 298.082,143.825 297.621,143.591 297.183 C 143.360 296.752,142.932 296.400,142.640 296.400 C 142.347 296.400,141.636 296.029,141.059 295.575 L 140.010 294.750 139.905 235.417 C 139.803 177.710,139.779 176.061,139.038 175.242 C 138.063 174.164,135.895 174.120,134.916 175.158 " stroke="none" fill="#fc3464" fill-rule="evenodd"></path></g></svg>